<svg xmlns="http://www.w3.org/2000/svg" width="539" height="564" viewBox="0 0 539 564">
<g>
<path d="M 258.00 536.12 C253.71,534.42 237.48,525.15 176.00,489.30 C125.56,459.88 97.72,443.71 72.14,428.96 C40.70,410.83 38.41,409.16 34.53,401.57 L 31.50 395.64 L 31.50 281.57 C31.50,174.21 31.61,167.20 33.30,162.33 C36.67,152.69 40.43,149.68 71.24,131.97 C98.25,116.44 156.63,82.52 220.00,45.51 C236.23,36.04 251.66,27.04 254.29,25.53 C259.85,22.32 269.19,21.15 275.50,22.86 C279.37,23.92 296.81,33.86 400.50,94.14 C427.45,109.81 459.48,128.37 471.69,135.37 C483.89,142.38 495.26,149.53 496.94,151.25 C498.63,152.98 501.02,156.44 502.26,158.95 L 504.50 163.50 L 504.50 397.50 L 501.53 402.87 C499.89,405.82 497.17,409.30 495.48,410.59 C493.78,411.88 481.17,419.40 467.45,427.31 C418.65,455.43 377.22,479.42 357.50,490.98 C316.15,515.23 281.06,535.07 276.98,536.51 C271.38,538.48 263.55,538.32 258.00,536.12 ZM 465.80 276.80 C467.68,274.92 467.42,219.66 465.49,210.50 C463.39,200.56 458.73,191.73 452.10,185.13 C445.06,178.11 438.15,174.34 428.79,172.39 C420.22,170.60 414.08,171.18 405.42,174.60 C402.08,175.92 399.11,177.00 398.82,177.00 C398.53,177.00 398.03,173.74 397.71,169.75 C395.03,136.14 360.99,115.98 333.16,131.53 C330.73,132.89 328.42,134.00 328.01,134.00 C327.61,134.00 326.78,131.55 326.18,128.55 C324.51,120.20 320.83,114.02 313.33,106.95 C300.96,95.29 285.94,89.61 267.50,89.64 C258.15,89.66 255.30,90.07 248.50,92.41 C236.53,96.51 229.19,100.77 222.24,107.64 C215.40,114.41 211.40,121.69 210.38,129.25 C210.03,131.86 209.56,134.00 209.34,134.00 C209.12,134.00 206.81,132.93 204.22,131.61 C193.19,126.03 183.26,124.74 172.62,127.51 C153.31,132.54 139.00,151.56 139.00,172.20 L 139.00 177.97 L 133.48 175.53 C116.11,167.85 98.82,171.05 85.42,184.43 C79.12,190.71 74.12,199.50 71.99,208.03 C71.38,210.50 70.62,225.93 70.31,242.57 C69.70,274.20 70.00,277.00 74.02,277.00 C75.09,277.00 88.01,269.87 102.73,261.15 C134.28,242.47 198.80,204.60 218.00,193.50 C225.43,189.21 237.35,182.24 244.50,178.02 C259.27,169.29 262.44,167.99 268.90,168.02 C274.81,168.05 277.35,169.25 302.00,183.67 C313.27,190.27 340.95,206.38 363.50,219.48 C386.05,232.58 416.42,250.37 431.00,259.02 C457.37,274.66 463.00,277.88 464.05,277.96 C464.35,277.98 465.14,277.46 465.80,276.80 ZM 259.20 483.80 C260.80,485.40 275.20,485.40 276.80,483.80 C277.49,483.11 278.00,479.78 278.00,475.92 L 278.00 469.23 L 283.74 468.51 C296.69,466.89 312.60,460.79 324.00,453.06 C326.48,451.38 329.19,450.01 330.04,450.00 C330.88,450.00 333.27,452.02 335.34,454.50 C337.41,456.98 339.58,459.00 340.16,459.00 C342.00,459.00 351.01,450.88 352.62,447.77 C354.15,444.81 354.13,444.76 349.58,440.52 C347.06,438.18 345.00,435.89 345.00,435.45 C345.00,435.00 346.77,431.91 348.94,428.57 C351.11,425.23 354.27,419.54 355.96,415.92 C359.13,409.13 363.99,391.75 364.02,387.12 C364.04,382.70 365.09,382.11 373.53,381.80 L 381.50 381.50 L 382.08 364.00 L 373.56 364.00 C365.52,364.00 365.01,363.87 364.61,361.75 C359.95,337.31 356.04,327.39 345.52,313.35 C344.81,312.40 345.69,310.87 348.77,307.73 C351.10,305.36 353.00,302.69 353.00,301.79 C353.00,299.76 342.91,291.00 340.57,291.00 C339.63,291.00 337.26,292.78 335.31,294.95 L 331.77 298.89 L 324.58 293.99 C320.63,291.30 314.27,287.68 310.45,285.95 C302.64,282.42 286.49,278.00 281.37,278.00 C279.37,278.00 277.98,277.49 277.94,276.75 C277.91,276.06 277.80,272.12 277.69,268.00 L 277.50 260.50 L 258.50 260.50 L 257.50 277.30 L 249.00 279.04 C234.99,281.90 220.91,288.01 211.83,295.16 L 208.16 298.04 L 203.92 293.02 C198.30,286.36 196.20,286.39 189.28,293.22 C186.08,296.38 184.00,299.30 184.00,300.64 C184.00,302.05 185.87,304.48 189.17,307.37 L 194.34 311.89 L 189.61 318.94 C181.64,330.82 178.74,338.52 174.34,359.50 L 173.50 363.50 L 157.50 364.50 L 157.20 371.84 C157.02,376.39 157.35,379.72 158.08,380.59 C158.89,381.57 161.49,382.00 166.53,382.00 L 173.81 382.00 L 174.48 387.25 C176.56,403.55 182.03,418.52 190.11,430.04 L 194.35 436.08 L 189.67 440.82 C187.10,443.43 185.00,446.04 185.00,446.61 C185.00,447.18 187.96,450.26 191.58,453.46 L 198.16 459.27 L 202.98 454.52 L 207.80 449.77 L 216.14 454.91 C226.64,461.37 237.37,465.53 248.55,467.48 C253.34,468.32 257.43,469.00 257.63,469.00 C257.83,469.00 258.00,472.06 258.00,475.80 C258.00,479.76 258.50,483.10 259.20,483.80 ZM 260.68 444.54 C259.52,450.39 259.44,450.50 256.00,450.72 C252.30,450.95 238.02,447.07 232.67,444.37 C227.12,441.58 221.00,437.53 221.00,436.65 C221.00,436.19 222.80,433.76 225.00,431.26 C229.77,425.85 229.96,423.81 226.08,419.92 C221.97,415.82 218.91,416.12 213.41,421.19 L 208.87 425.37 L 206.47 422.44 C200.08,414.64 192.71,396.32 191.81,386.00 C191.50,382.52 191.53,382.50 196.50,381.66 C204.17,380.38 204.46,380.07 204.80,372.99 C205.14,365.89 204.52,365.04 198.94,365.02 C196.98,365.01 194.63,364.44 193.72,363.75 C192.18,362.60 192.17,361.91 193.57,355.00 C195.19,347.04 203.57,328.61 206.98,325.52 C208.85,323.82 209.09,323.91 213.60,327.88 C216.18,330.15 219.16,332.00 220.24,332.00 C222.48,332.00 229.00,325.90 229.00,323.81 C229.00,323.04 226.98,320.43 224.50,318.00 C222.02,315.57 220.00,313.11 220.00,312.54 C220.00,311.07 228.32,305.63 236.00,302.08 C243.68,298.52 253.95,295.74 257.77,296.19 C260.33,296.48 260.52,296.85 260.81,301.99 C261.21,309.13 262.91,311.00 269.00,311.00 C275.33,311.00 277.00,309.06 277.00,301.67 C277.00,296.15 277.07,296.00 279.75,296.01 C284.92,296.04 295.30,299.05 303.41,302.86 C310.90,306.38 318.00,311.25 318.00,312.86 C318.00,313.23 316.20,315.71 314.00,318.38 C311.80,321.04 310.00,323.88 310.00,324.69 C310.00,326.96 315.58,332.00 318.11,332.00 C319.35,332.00 322.56,330.15 325.24,327.89 C330.03,323.86 330.14,323.82 332.16,325.64 C335.42,328.59 343.69,346.79 345.48,354.97 C347.03,362.02 347.03,362.51 345.37,363.72 C344.41,364.42 341.94,365.00 339.88,365.00 C334.96,365.00 333.00,367.11 333.00,372.38 C333.00,378.36 334.60,380.05 341.04,380.83 C345.08,381.33 346.56,381.95 346.81,383.25 C347.98,389.32 337.25,416.60 331.61,421.89 L 329.06 424.29 L 325.03 420.64 C320.06,416.16 316.88,415.97 312.92,419.92 C309.11,423.74 309.24,426.15 313.50,430.87 C315.42,433.00 317.00,435.23 317.00,435.83 C317.00,437.68 303.45,445.07 295.33,447.65 C291.09,449.00 285.35,450.19 282.58,450.30 L 277.55 450.50 L 276.78 444.50 C275.91,437.65 274.39,436.00 269.00,436.00 C263.74,436.00 262.01,437.77 260.68,444.54 ZM 93.22 320.65 C143.54,291.04 172.74,273.94 198.00,259.29 C213.12,250.51 234.81,237.86 246.19,231.16 C257.57,224.47 267.54,219.00 268.36,219.00 C269.17,219.00 286.19,228.51 306.17,240.13 C326.15,251.75 355.33,268.70 371.00,277.80 C386.67,286.89 411.20,301.16 425.50,309.49 C459.10,329.08 464.24,331.87 465.75,331.30 C467.08,330.80 467.61,310.74 466.38,307.54 C465.82,306.09 455.03,299.38 429.00,284.29 C424.33,281.58 401.83,268.40 379.00,254.99 C271.74,191.99 269.91,190.85 268.17,190.98 C268.04,190.98 267.92,191.00 267.76,191.00 C267.04,191.00 258.13,195.86 247.97,201.80 C209.62,224.24 157.68,254.81 135.50,268.00 C122.85,275.53 103.72,286.76 93.00,292.96 C82.28,299.16 72.71,305.13 71.75,306.23 C70.31,307.87 70.00,310.18 70.00,319.44 C70.00,325.62 70.30,330.97 70.67,331.33 C72.12,332.78 74.63,331.59 93.22,320.65 ZM 250.07 427.53 C258.48,430.67 259.97,430.41 262.81,425.25 L 265.15 421.00 L 276.92 421.00 L 279.55 425.50 C281.00,427.98 282.63,430.00 283.16,430.00 C285.42,430.00 298.92,423.75 300.55,421.95 C302.11,420.23 302.17,419.53 301.05,416.15 C299.97,412.88 300.02,411.86 301.40,409.19 C303.62,404.91 306.31,403.67 311.68,404.47 C314.75,404.93 316.62,404.73 317.72,403.82 C320.20,401.77 325.00,390.86 325.00,387.27 C325.00,384.53 324.42,383.74 321.12,382.06 C316.75,379.83 316.00,378.49 316.00,372.94 C316.00,369.25 316.28,368.89 321.12,366.44 C325.94,364.00 326.21,363.66 325.71,360.67 C325.14,357.25 321.59,347.44 320.04,345.02 C319.34,343.91 317.49,343.61 312.69,343.83 C306.53,344.11 306.17,343.99 303.54,340.86 C301.13,338.00 300.87,337.04 301.41,332.97 C302.14,327.48 301.51,326.73 292.28,322.11 C283.65,317.80 280.95,317.97 277.58,323.05 C275.01,326.94 274.71,327.09 270.23,326.80 C265.97,326.53 265.31,326.12 262.64,322.14 C259.90,318.05 259.50,317.82 256.11,318.37 C254.13,318.69 249.19,320.58 245.15,322.58 C241.18,324.54 239.20,325.46 238.50,326.96 C237.79,328.49 238.39,330.64 239.52,335.11 C240.04,337.17 239.51,338.49 237.03,341.32 C233.89,344.88 233.82,344.91 227.64,344.33 L 221.42 343.75 L 219.68 347.62 C216.85,353.93 215.00,362.13 215.99,363.98 C216.48,364.89 218.73,366.47 220.99,367.49 C225.09,369.34 225.09,369.35 224.80,374.41 C224.51,379.22 224.29,379.59 220.25,381.81 C217.09,383.55 216.00,384.76 216.00,386.54 C216.00,389.81 219.64,399.27 222.10,402.40 C223.97,404.77 224.53,404.91 229.89,404.35 C235.37,403.78 235.77,403.89 237.91,406.61 C239.67,408.85 240.03,410.25 239.55,412.99 C237.95,422.19 238.74,423.29 250.07,427.53 Z" fill="rgba(20,42,80,1)"/>
<path d="M 259.20 483.80 C258.50,483.10 258.00,479.76 258.00,475.80 C258.00,472.06 257.83,469.00 257.63,469.00 C257.43,469.00 253.34,468.32 248.55,467.48 C237.37,465.53 226.64,461.37 216.14,454.91 L 207.80 449.77 L 202.98 454.52 L 198.16 459.27 L 191.58 453.46 C187.96,450.26 185.00,447.18 185.00,446.61 C185.00,446.04 187.10,443.43 189.67,440.82 L 194.35 436.08 L 190.11 430.04 C182.03,418.52 176.56,403.55 174.48,387.25 L 173.81 382.00 L 166.53 382.00 C161.49,382.00 158.89,381.57 158.08,380.59 C157.35,379.72 157.02,376.39 157.20,371.84 L 157.50 364.50 L 165.50 364.00 L 173.50 363.50 L 174.34 359.50 C178.74,338.52 181.64,330.82 189.61,318.94 L 194.34 311.89 L 189.17 307.37 C185.87,304.48 184.00,302.05 184.00,300.64 C184.00,299.30 186.08,296.38 189.28,293.22 C196.20,286.39 198.30,286.36 203.92,293.02 L 208.16 298.04 L 211.83 295.16 C220.91,288.01 234.99,281.90 249.00,279.04 L 257.50 277.30 L 258.00 268.90 L 258.50 260.50 L 268.00 260.50 L 277.50 260.50 L 277.69 268.00 C277.80,272.12 277.91,276.06 277.94,276.75 C277.98,277.49 279.37,278.00 281.37,278.00 C286.49,278.00 302.64,282.42 310.45,285.95 C314.27,287.68 320.63,291.30 324.58,293.99 L 331.77 298.89 L 335.31 294.95 C337.26,292.78 339.63,291.00 340.57,291.00 C342.91,291.00 353.00,299.76 353.00,301.79 C353.00,302.69 351.10,305.36 348.77,307.73 C345.69,310.87 344.81,312.40 345.52,313.35 C356.04,327.39 359.95,337.31 364.61,361.75 C365.01,363.87 365.52,364.00 373.56,364.00 L 382.08 364.00 L 381.79 372.75 L 381.50 381.50 L 373.53 381.80 C365.09,382.11 364.04,382.70 364.02,387.12 C363.99,391.75 359.13,409.13 355.96,415.92 C354.27,419.54 351.11,425.23 348.94,428.57 C346.77,431.91 345.00,435.00 345.00,435.45 C345.00,435.89 347.06,438.18 349.58,440.52 C354.13,444.76 354.15,444.81 352.62,447.77 C351.01,450.88 342.00,459.00 340.16,459.00 C339.58,459.00 337.41,456.98 335.34,454.50 C333.27,452.02 330.88,450.00 330.04,450.00 C329.19,450.01 326.48,451.38 324.00,453.06 C312.60,460.79 296.69,466.89 283.74,468.51 L 278.00 469.23 L 278.00 475.92 C278.00,479.78 277.49,483.11 276.80,483.80 C275.20,485.40 260.80,485.40 259.20,483.80 ZM 260.68 444.54 C262.01,437.77 263.74,436.00 269.00,436.00 C274.39,436.00 275.91,437.65 276.78,444.50 L 277.55 450.50 L 282.58 450.30 C285.35,450.19 291.09,449.00 295.33,447.65 C303.45,445.07 317.00,437.68 317.00,435.83 C317.00,435.23 315.42,433.00 313.50,430.87 C309.24,426.15 309.11,423.74 312.92,419.92 C316.88,415.97 320.06,416.16 325.03,420.64 L 329.06 424.29 L 331.61 421.89 C337.25,416.60 347.98,389.32 346.81,383.25 C346.56,381.95 345.08,381.33 341.04,380.83 C334.60,380.05 333.00,378.36 333.00,372.38 C333.00,367.11 334.96,365.00 339.88,365.00 C341.94,365.00 344.41,364.42 345.37,363.72 C347.03,362.51 347.03,362.02 345.48,354.97 C343.69,346.79 335.42,328.59 332.16,325.64 C330.14,323.82 330.03,323.86 325.24,327.89 C322.56,330.15 319.35,332.00 318.11,332.00 C315.58,332.00 310.00,326.96 310.00,324.69 C310.00,323.88 311.80,321.04 314.00,318.38 C316.20,315.71 318.00,313.23 318.00,312.86 C318.00,311.25 310.90,306.38 303.41,302.86 C295.30,299.05 284.92,296.04 279.75,296.01 C277.07,296.00 277.00,296.15 277.00,301.67 C277.00,309.06 275.33,311.00 269.00,311.00 C262.91,311.00 261.21,309.13 260.81,301.99 C260.52,296.85 260.33,296.48 257.77,296.19 C253.95,295.74 243.68,298.52 236.00,302.08 C228.32,305.63 220.00,311.07 220.00,312.54 C220.00,313.11 222.02,315.57 224.50,318.00 C226.98,320.43 229.00,323.04 229.00,323.81 C229.00,325.90 222.48,332.00 220.24,332.00 C219.16,332.00 216.18,330.15 213.60,327.88 C209.09,323.91 208.85,323.82 206.98,325.52 C203.57,328.61 195.19,347.04 193.57,355.00 C192.17,361.91 192.18,362.60 193.72,363.75 C194.63,364.44 196.98,365.01 198.94,365.02 C204.52,365.04 205.14,365.89 204.80,372.99 C204.46,380.07 204.17,380.38 196.50,381.66 C191.53,382.50 191.50,382.52 191.81,386.00 C192.71,396.32 200.08,414.64 206.47,422.44 L 208.87 425.37 L 213.41 421.19 C218.91,416.12 221.97,415.82 226.08,419.92 C229.96,423.81 229.77,425.85 225.00,431.26 C222.80,433.76 221.00,436.19 221.00,436.65 C221.00,437.53 227.12,441.58 232.67,444.37 C238.02,447.07 252.30,450.95 256.00,450.72 C259.44,450.50 259.52,450.39 260.68,444.54 ZM 250.07 427.53 C238.74,423.29 237.95,422.19 239.55,412.99 C240.03,410.25 239.67,408.85 237.91,406.61 C235.77,403.89 235.37,403.78 229.89,404.35 C224.53,404.91 223.97,404.77 222.10,402.40 C219.64,399.27 216.00,389.81 216.00,386.54 C216.00,384.76 217.09,383.55 220.25,381.81 C224.29,379.59 224.51,379.22 224.80,374.41 C225.09,369.35 225.09,369.34 220.99,367.49 C218.73,366.47 216.48,364.89 215.99,363.98 C215.00,362.13 216.85,353.93 219.68,347.62 L 221.42 343.75 L 227.64 344.33 C233.82,344.91 233.89,344.88 237.03,341.32 C239.51,338.49 240.04,337.17 239.52,335.11 C237.27,326.23 237.13,326.54 245.15,322.58 C249.19,320.58 254.13,318.69 256.11,318.37 C259.50,317.82 259.90,318.05 262.64,322.14 C265.31,326.12 265.97,326.53 270.23,326.80 C274.71,327.09 275.01,326.94 277.58,323.05 C280.95,317.97 283.65,317.80 292.28,322.11 C301.51,326.73 302.14,327.48 301.41,332.97 C300.87,337.04 301.13,338.00 303.54,340.86 C306.17,343.99 306.53,344.11 312.69,343.83 C317.49,343.61 319.34,343.91 320.04,345.02 C321.59,347.44 325.14,357.25 325.71,360.67 C326.21,363.66 325.94,364.00 321.12,366.44 C316.28,368.89 316.00,369.25 316.00,372.94 C316.00,378.49 316.75,379.83 321.12,382.06 C324.42,383.74 325.00,384.53 325.00,387.27 C325.00,390.86 320.20,401.77 317.72,403.82 C316.62,404.73 314.75,404.93 311.68,404.47 C306.31,403.67 303.62,404.91 301.40,409.19 C300.02,411.86 299.97,412.88 301.05,416.15 C302.17,419.53 302.11,420.23 300.55,421.95 C298.92,423.75 285.42,430.00 283.16,430.00 C282.63,430.00 281.00,427.98 279.55,425.50 L 276.92 421.00 L 271.03 421.00 L 265.15 421.00 L 262.81 425.25 C259.97,430.41 258.48,430.67 250.07,427.53 Z" fill="rgba(250,250,250,1)"/>
</g>
</svg>